<?xml version="1.0" standalone="no"?><!DOCTYPE svg PUBLIC "-//W3C//DTD SVG 1.1//EN" "http://www.w3.org/Graphics/SVG/1.1/DTD/svg11.dtd"><svg t="1773715291169" class="icon" viewBox="0 0 1024 1024" version="1.1" xmlns="http://www.w3.org/2000/svg" p-id="15349" xmlns:xlink="http://www.w3.org/1999/xlink" width="200" height="200"><path d="M23.154 345.896l9.328-30.218 11.562-11.108 53.78 16 143.12 15.11 59.108 40.888-21.33 38.232s4.438 80.434 5.328 82.668c0.89 2.218 26.67 45.78 26.67 45.78l64.888 87.998-100.886 18.688-100.902-35.562-38.67-60.466-53.78-45.326s-10.656-46.67-9.764-48.452-21.782-57.78-21.782-57.78l-26.67-56.452z" fill="#E6E9ED" p-id="15350"></path><path d="M10.138 285.82l9.562-22.656 21.078 12.656c22.39 13.454 60.81 17.234 101.48 21.25 46.654 4.594 94.888 9.342 133.964 29.202 47.514 24.156 71.608 66.794 71.608 126.746H305.16c0-44.374-14.89-71.732-48.264-88.702-31.92-16.232-76.106-20.576-118.824-24.794-34.186-3.36-66.95-6.594-94.106-15.75-2.342 15.032-2.436 35.546 8.36 53.202 15.578 25.5 50.342 40.436 103.31 44.404 1.688 0.124 6.328 0.282 9.718 0.376 2.546 0.094 4.876 0.156 6.312 0.234v0.016a21.338 21.338 0 0 1 14.094 6.204c8.328 8.328 8.328 21.844 0 30.172-4.422 4.422-10.296 6.468-16.094 6.202v0.032c-1.296-0.062-3.39-0.124-5.656-0.204-5.25-0.17-9.14-0.296-11.562-0.484-26.562-1.984-49.78-6.578-69.592-13.718-0.078 10.938 2 24.108 9.734 36.108 15.014 23.25 48.842 37.562 97.856 41.39 4.718 0.36 14.968 0.672 21.078 0.86l2.484 0.078v0.032a21.144 21.144 0 0 1 14.406 6.218c8.344 8.326 8.344 21.826 0 30.17a21.244 21.244 0 0 1-15.75 6.188v0.062l-2.454-0.094c-7.328-0.218-17.36-0.532-23.078-0.968a337.594 337.594 0 0 1-21.5-2.376c1.124 5.438 3.656 11.75 8.86 17.998 14.906 17.876 60.858 44.906 200.962 25.438l5.876 42.248c-34.202 4.75-65.124 7.124-92.748 7.124-75.106 0-125.668-17.56-150.792-52.56a82.384 82.384 0 0 1-15.546-50.56c-29.562-10.344-51.498-26.404-65.498-48.108-19.218-29.782-17.874-62.06-14.562-81.044-10.688-8.328-19.468-18.062-26.266-29.186-31.356-51.298-6.842-110.89-5.78-113.406z" fill="#CCD1D9" p-id="15351"></path><path d="M1000.856 345.896l-9.344-30.218-11.562-11.108-53.78 16-143.122 15.11-59.09 40.888 21.31 38.234s-4.438 80.434-5.31 82.668c-0.906 2.218-26.688 45.78-26.688 45.78l-64.874 87.998 100.872 18.688 100.904-35.562 38.684-60.466 53.782-45.326s10.656-46.67 9.75-48.452c-0.876-1.782 21.78-57.78 21.78-57.78l26.688-56.454z" fill="#E6E9ED" p-id="15352"></path><path d="M1013.854 285.82l-9.532-22.656-21.092 12.656c-22.404 13.454-60.81 17.234-101.496 21.25-46.654 4.594-94.874 9.342-133.964 29.202-47.498 24.156-71.592 66.794-71.592 126.746h42.656c0-44.374 14.906-71.732 48.28-88.702 31.904-16.232 76.092-20.576 118.808-24.794 34.186-3.36 66.966-6.594 94.122-15.75 2.344 15.032 2.438 35.546-8.374 53.202-15.562 25.5-50.344 40.436-103.31 44.404-1.688 0.124-6.312 0.282-9.718 0.376-2.53 0.094-4.874 0.156-6.31 0.234v0.016a21.372 21.372 0 0 0-14.094 6.204c-8.312 8.328-8.312 21.844 0 30.172a21.318 21.318 0 0 0 16.094 6.202v0.032c1.312-0.062 3.404-0.124 5.654-0.204 5.25-0.17 9.156-0.296 11.562-0.484 26.56-1.984 49.78-6.578 69.592-13.718 0.094 10.938-1.968 24.108-9.718 36.108-15.032 23.25-48.842 37.562-97.872 41.39-4.718 0.36-14.968 0.672-21.062 0.86l-2.5 0.078v0.032a21.2 21.2 0 0 0-14.406 6.218c-8.344 8.326-8.344 21.826 0 30.17a21.268 21.268 0 0 0 15.75 6.188v0.062l2.468-0.094c7.312-0.218 17.344-0.532 23.062-0.968 7.438-0.594 14.594-1.376 21.498-2.376-1.124 5.438-3.654 11.75-8.842 17.998-14.938 17.876-60.876 44.906-200.962 25.438l-5.876 42.248c34.186 4.75 65.124 7.124 92.748 7.124 75.09 0 125.65-17.56 150.774-52.56a82.516 82.516 0 0 0 15.562-50.56c29.562-10.344 51.5-26.404 65.5-48.108 19.216-29.782 17.874-62.06 14.56-81.044 10.688-8.328 19.468-18.062 26.248-29.186 31.376-51.298 6.844-110.89 5.782-113.406z" fill="#CCD1D9" p-id="15353"></path><path d="M618.65 291.492c-41.782 0-79.546 17.17-106.654 44.828-27.108-27.656-64.888-44.828-106.668-44.828-82.482 0-149.338 66.858-149.338 149.338 0 170.666 256.006 320.006 256.006 320.006s255.992-149.34 255.992-320.006c0-82.482-66.842-149.338-149.338-149.338z" fill="#ED5564" p-id="15354"></path><path d="M618.65 291.492c-7.218 0-14.344 0.516-21.312 1.516 72.372 10.36 127.996 72.59 127.996 147.824 0 140.384-173.214 266.318-234.666 306.6 13.25 8.688 21.328 13.406 21.328 13.406s255.992-149.34 255.992-320.006c0-82.484-66.842-149.34-149.338-149.34z" fill="#FFFFFF" opacity=".2" p-id="15355"></path></svg>