<?xml version="1.0" standalone="no"?><!DOCTYPE svg PUBLIC "-//W3C//DTD SVG 1.1//EN" "http://www.w3.org/Graphics/SVG/1.1/DTD/svg11.dtd"><svg t="1773625744235" class="icon" viewBox="0 0 1024 1024" version="1.1" xmlns="http://www.w3.org/2000/svg" p-id="2540" data-darkreader-inline-fill="" xmlns:xlink="http://www.w3.org/1999/xlink" width="200" height="200"><path d="M506.8 927.6zM181.7 215v422.8c0 79.4 90.1 153.6 165.8 201.8 72 45.9 144.7 77.5 164.7 85.8 20.2-8.5 94.5-40.8 167.8-88 76.8-49.5 168.3-125.9 168.3-208.7V215L515 89.6 181.7 215zM506.8 848z" fill="#FFFFFF" p-id="2541" data-darkreader-inline-fill="" style="--darkreader-inline-fill: var(--darkreader-background-ffffff, #151717);"></path><path d="M506.9 897.6zM181.8 185v422.8c0 79.4 90.1 153.6 165.8 201.8 72 45.9 144.7 77.5 164.7 85.8 20.2-8.5 94.5-40.8 167.8-88 76.8-49.5 168.3-125.9 168.3-208.7V185L515.1 59.6 181.8 185zM506.9 818z" fill="#65D5EF" p-id="2542" data-darkreader-inline-fill="" style="--darkreader-inline-fill: var(--darkreader-background-65d5ef, #156171);"></path><path d="M506.9 848zM245.7 270.6v343.3c0 63.5 72.6 123.3 133.5 162.3 57.3 36.7 115.5 62.2 133.1 69.6 17.8-7.5 77.3-33.5 135.9-71.2 62.2-40 136.4-101.7 136.4-168.1V270.6L512.3 169.3 245.7 270.6z" fill="#E87A66" p-id="2543" data-darkreader-inline-fill="" style="--darkreader-inline-fill: var(--darkreader-background-e87a66, #6f2415);"></path><path d="M512.3 780c22.6-10.1 60.3-28.2 97.5-51.7 51.8-32.8 113.5-83.2 113.5-136.8V314.8l-211-77.3V780z" fill="#F7DF8A" p-id="2544" data-darkreader-inline-fill="" style="--darkreader-inline-fill: var(--darkreader-background-f7df8a, #5c4a0c);"></path><path d="M512.2 955.6c-1.8 0-3.6-0.3-5.4-1-3.6-1.4-88.5-35.4-174.9-90.5-51.2-32.7-92.1-66-121.6-99-38.2-42.8-57.6-85.6-57.6-127.2V205c0-6 3.7-11.5 9.4-13.6L509.9 60.6c3.3-1.2 6.9-1.2 10.2 0l347.8 130.8c5.7 2.1 9.4 7.5 9.4 13.6v423.7c0 43.1-19.6 87.4-58.4 131.4-30 34.1-71.5 68.4-123.6 101.9-87.8 56.6-174.2 91.1-177.8 92.6-1.7 0.7-3.5 1-5.3 1z m-5.4-28zM181.7 215v422.8c0 79.4 90.1 153.6 165.8 201.8 72 45.9 144.7 77.5 164.7 85.8 20.2-8.5 94.5-40.8 167.8-88 76.8-49.5 168.3-125.9 168.3-208.7V215L515 89.6 181.7 215z" fill="#274359" p-id="2545" data-darkreader-inline-fill="" style="--darkreader-inline-fill: var(--darkreader-background-274359, #253a49);"></path><path d="M512.2 876c-1.8 0-3.6-0.3-5.4-1-2.9-1.2-72.4-29-143-74.1-41.9-26.8-75.4-54.2-99.6-81.3-31.6-35.4-47.6-71-47.6-105.6V260.6c0-6 3.7-11.4 9.4-13.6l281-106.8c3.3-1.3 6.9-1.3 10.2 0L804 247c5.7 2.1 9.4 7.5 9.4 13.6v345.9c0 35.9-16.3 72.6-48.4 109.1-24.7 28-58.9 56.2-101.6 83.7-72 46.3-142.9 74.6-145.9 75.8-1.7 0.6-3.5 0.9-5.3 0.9z m-5.4-28zM245.6 270.6v343.3c0 63.5 72.6 123.3 133.5 162.3 57.3 36.7 115.5 62.2 133.1 69.6 17.8-7.5 77.3-33.5 135.9-71.2 62.2-40 136.4-101.7 136.4-168.1V270.6L512.2 169.3 245.6 270.6z" fill="#274359" p-id="2546" data-darkreader-inline-fill="" style="--darkreader-inline-fill: var(--darkreader-background-274359, #253a49);"></path><path d="M512.2 693.9c-8 0-14.5-6.5-14.5-14.5v-32.9c0-8 6.5-14.5 14.5-14.5s14.5 6.5 14.5 14.5v32.9c0 8-6.5 14.5-14.5 14.5z" fill="#274359" p-id="2547" data-darkreader-inline-fill="" style="--darkreader-inline-fill: var(--darkreader-text-274359, #b8c1c5);"></path><path d="M512.2 799.7c-2.9 0-5.7-0.9-8.2-2.5-4-2.7-6.4-7.2-6.4-12v-62.7c0-8 6.5-14.5 14.5-14.5s14.5 6.5 14.5 14.5v40.6c21.1-9.5 56.1-26.6 90.8-48.8 48.2-31 105.8-78.5 105.8-129.2V323.9l-196.5-73v332.5c0 8-6.5 14.5-14.5 14.5s-14.5-6.5-14.5-14.5V230c0-4.8 2.3-9.2 6.2-11.9 3.9-2.7 8.9-3.3 13.3-1.7l225.6 83.8c5.7 2.1 9.5 7.5 9.5 13.6v271.3c0 51.3-40.2 103-119.5 153.8-56.9 36.5-112.9 58.8-115.3 59.7-1.7 0.8-3.5 1.1-5.3 1.1z" fill="#274359" p-id="2548" data-darkreader-inline-fill="" style="--darkreader-inline-fill: var(--darkreader-background-274359, #253a49);"></path></svg>